<svg xmlns="http://www.w3.org/2000/svg" width="100" height="100" viewBox="0 0 100 110" fill="none">
  <defs>
    <linearGradient id="ganeshaGold" x1="0%" y1="0%" x2="100%" y2="100%">
      <stop offset="0%" stopColor="#FFF5D6" />
      <stop offset="50%" stopColor="#D4AF37" />
      <stop offset="100%" stopColor="#AA8C2C" />
    </linearGradient>
  </defs>

  <!-- Solid Gold Background Circle to make it pop on dark/light tabs -->
  <circle cx="50" cy="55" r="48" fill="url(#ganeshaGold)" />
  
  <!-- Decorative inner ring in Royal Maroon -->
  <circle cx="50" cy="55" r="43" stroke="#4B0F1A" strokeWidth="1.5" strokeDasharray="3 3" opacity="0.75" />

  <!-- Ganesha Silhouette in Royal Maroon (#4B0F1A) with thicker strokes for high-contrast legibility -->
  <!-- Crown (Mukut) -->
  <path d="M42 22 L50 4 L58 22 Z" stroke="#4B0F1A" strokeWidth="3.5" strokeLinecap="round" strokeLinejoin="round" />
  <path d="M45 22 L50 10 L55 22" stroke="#4B0F1A" strokeWidth="2.5" strokeLinecap="round" />
  <path d="M39 22 C45 22 45 25 50 25 C55 25 55 22 61 22" stroke="#4B0F1A" strokeWidth="3.5" strokeLinecap="round" />
  <circle cx="50" cy="2.5" r="2.5" fill="#4B0F1A" />

  <!-- Ears -->
  <path d="M38 35 C20 30 22 55 35 50" stroke="#4B0F1A" strokeWidth="4" strokeLinecap="round" />
  <path d="M34 42 C26 40 26 47 34 46" stroke="#4B0F1A" strokeWidth="2.5" strokeLinecap="round" opacity="0.9" />
  <path d="M62 35 C80 30 78 55 65 50" stroke="#4B0F1A" strokeWidth="4" strokeLinecap="round" />
  <path d="M66 42 C74 40 74 47 66 46" stroke="#4B0F1A" strokeWidth="2.5" strokeLinecap="round" opacity="0.9" />

  <!-- Face Outline & Tusk -->
  <path d="M50 25 C42 25 38 31 38 42 C38 48 40 52 42 55" stroke="#4B0F1A" strokeWidth="4" strokeLinecap="round" />
  <path d="M38 46 H33 L35 44" stroke="#4B0F1A" strokeWidth="3" strokeLinecap="round" strokeLinejoin="round" />

  <!-- Trunk (Sondh) -->
  <path d="M50 42 C51 55 64 54 64 68 C64 78 52 79 46 75 C42 72 43 66 47 66 C51 66 54 70 51 72 C49 73 47 71 47 70" 
        stroke="#4B0F1A" strokeWidth="5.5" strokeLinecap="round" strokeLinejoin="round" />

  <!-- Modak -->
  <path d="M32 64 C32 60 38 60 38 64 C38 67 32 67 32 64 Z" fill="#4B0F1A" />
  
  <!-- Tika -->
  <path d="M48 31 Q50 27 52 31 Q50 35 48 31 Z" fill="#4B0F1A" />
  <line x1="45" y1="34" x2="55" y2="34" stroke="#4B0F1A" strokeWidth="2.5" />
  <line x1="47" y1="36" x2="53" y2="36" stroke="#4B0F1A" strokeWidth="2" />
</svg>